<svg xmlns="http://www.w3.org/2000/svg" width="1280" height="1280" viewBox="0 0 1280 1280">
  <title>Orange</title>
  <defs>
    <mask id="orange-knockout">
      <rect width="1280" height="1280" fill="#fff"/>
      <path fill="#000" fill-rule="evenodd" d="M 1108 926 L 1108 933 L 1125 933 L 1126 934 L 1126 984 L 1135 984 L 1135 934 L 1138 932 L 1139 933 L 1153 933 L 1153 926 Z M 1166 926 L 1166 983 L 1167 984 L 1175 984 L 1175 936 L 1176 935 L 1178 938 L 1178 940 L 1180 943 L 1180 945 L 1181 946 L 1181 948 L 1182 949 L 1182 950 L 1183 951 L 1183 953 L 1185 956 L 1185 958 L 1186 959 L 1186 961 L 1189 966 L 1189 968 L 1190 969 L 1190 970 L 1191 971 L 1191 973 L 1193 976 L 1193 978 L 1194 979 L 1194 981 L 1196 984 L 1200 984 L 1202 982 L 1202 980 L 1205 975 L 1205 973 L 1206 972 L 1206 970 L 1207 969 L 1207 968 L 1208 967 L 1208 965 L 1210 962 L 1210 960 L 1211 959 L 1211 957 L 1212 956 L 1212 955 L 1213 954 L 1213 952 L 1215 949 L 1215 947 L 1216 946 L 1216 944 L 1217 943 L 1217 942 L 1219 939 L 1219 937 L 1220 936 L 1221 937 L 1221 983 L 1222 984 L 1230 984 L 1230 926 L 1216 926 L 1216 927 L 1214 930 L 1214 932 L 1212 935 L 1212 937 L 1210 940 L 1210 942 L 1209 943 L 1209 945 L 1207 948 L 1207 950 L 1206 951 L 1206 953 L 1204 956 L 1204 958 L 1201 963 L 1201 966 L 1200 967 L 1200 968 L 1198 970 L 1197 969 L 1197 967 L 1196 966 L 1196 964 L 1194 961 L 1194 959 L 1192 956 L 1192 954 L 1190 951 L 1190 949 L 1188 946 L 1188 944 L 1187 943 L 1187 941 L 1185 938 L 1185 936 L 1183 933 L 1183 931 L 1182 930 L 1181 927 L 1180 926 Z M 143 989 L 142 990 L 138 990 L 137 991 L 133 991 L 132 992 L 129 992 L 128 993 L 126 993 L 125 994 L 123 994 L 120 996 L 118 996 L 117 997 L 116 997 L 115 998 L 112 999 L 110 1001 L 107 1002 L 105 1004 L 104 1004 L 101 1007 L 100 1007 L 88 1019 L 88 1020 L 85 1023 L 84 1026 L 82 1028 L 82 1029 L 81 1030 L 81 1031 L 80 1032 L 80 1033 L 79 1034 L 79 1035 L 76 1040 L 76 1042 L 75 1043 L 75 1045 L 74 1046 L 74 1048 L 73 1049 L 73 1052 L 72 1053 L 72 1057 L 71 1058 L 71 1062 L 70 1063 L 70 1072 L 69 1073 L 69 1092 L 70 1093 L 70 1101 L 71 1102 L 71 1106 L 72 1107 L 72 1111 L 73 1112 L 73 1115 L 74 1116 L 74 1118 L 75 1119 L 75 1122 L 78 1127 L 78 1129 L 80 1131 L 80 1133 L 82 1135 L 83 1138 L 85 1140 L 85 1141 L 87 1143 L 87 1144 L 92 1149 L 92 1150 L 96 1154 L 97 1154 L 101 1158 L 102 1158 L 105 1161 L 106 1161 L 108 1163 L 109 1163 L 110 1164 L 111 1164 L 112 1165 L 113 1165 L 114 1166 L 115 1166 L 116 1167 L 117 1167 L 122 1170 L 125 1170 L 128 1172 L 131 1172 L 132 1173 L 135 1173 L 136 1174 L 140 1174 L 141 1175 L 153 1175 L 154 1176 L 161 1176 L 162 1175 L 172 1175 L 173 1174 L 177 1174 L 178 1173 L 182 1173 L 183 1172 L 185 1172 L 186 1171 L 188 1171 L 189 1170 L 191 1170 L 192 1169 L 194 1169 L 195 1168 L 196 1168 L 197 1167 L 198 1167 L 199 1166 L 200 1166 L 201 1165 L 204 1164 L 206 1162 L 207 1162 L 209 1160 L 210 1160 L 213 1157 L 214 1157 L 225 1146 L 225 1145 L 227 1143 L 227 1142 L 230 1139 L 230 1138 L 231 1137 L 231 1136 L 232 1135 L 232 1134 L 233 1133 L 233 1132 L 234 1131 L 234 1130 L 237 1125 L 237 1123 L 238 1122 L 238 1120 L 240 1117 L 240 1114 L 241 1113 L 241 1110 L 242 1109 L 242 1105 L 243 1104 L 243 1097 L 244 1096 L 244 1069 L 243 1068 L 243 1060 L 242 1059 L 242 1055 L 241 1054 L 241 1052 L 240 1051 L 240 1048 L 239 1047 L 239 1045 L 238 1044 L 238 1042 L 237 1041 L 237 1039 L 236 1038 L 236 1037 L 235 1036 L 235 1035 L 234 1034 L 234 1033 L 233 1032 L 233 1031 L 232 1030 L 231 1027 L 229 1025 L 229 1024 L 226 1021 L 226 1020 L 222 1016 L 222 1015 L 216 1009 L 215 1009 L 211 1005 L 210 1005 L 205 1001 L 204 1001 L 203 1000 L 202 1000 L 201 999 L 200 999 L 199 998 L 198 998 L 193 995 L 191 995 L 190 994 L 188 994 L 187 993 L 185 993 L 184 992 L 181 992 L 180 991 L 176 991 L 175 990 L 171 990 L 170 989 Z M 409 1012 L 405 1016 L 405 1017 L 401 1021 L 401 1022 L 399 1024 L 400 1024 L 402 1026 L 404 1026 L 406 1028 L 407 1028 L 408 1029 L 409 1029 L 411 1031 L 412 1031 L 413 1032 L 414 1032 L 415 1033 L 418 1034 L 420 1036 L 423 1037 L 425 1039 L 426 1039 L 429 1041 L 431 1041 L 431 1040 L 438 1033 L 439 1033 L 442 1030 L 443 1030 L 445 1028 L 446 1028 L 451 1025 L 453 1025 L 454 1024 L 456 1024 L 457 1023 L 460 1023 L 461 1022 L 465 1022 L 466 1021 L 481 1021 L 482 1022 L 486 1022 L 487 1023 L 489 1023 L 490 1024 L 493 1025 L 500 1032 L 500 1033 L 501 1034 L 501 1036 L 502 1037 L 502 1052 L 501 1053 L 492 1053 L 491 1054 L 486 1054 L 485 1055 L 480 1055 L 479 1056 L 474 1056 L 473 1057 L 469 1057 L 468 1058 L 464 1058 L 463 1059 L 459 1059 L 458 1060 L 456 1060 L 455 1061 L 452 1061 L 451 1062 L 449 1062 L 448 1063 L 445 1063 L 444 1064 L 442 1064 L 441 1065 L 439 1065 L 438 1066 L 436 1066 L 433 1068 L 431 1068 L 430 1069 L 429 1069 L 428 1070 L 427 1070 L 426 1071 L 425 1071 L 424 1072 L 423 1072 L 422 1073 L 419 1074 L 414 1078 L 411 1079 L 400 1090 L 400 1091 L 397 1094 L 397 1095 L 396 1096 L 396 1097 L 393 1102 L 393 1104 L 392 1105 L 392 1108 L 391 1109 L 391 1113 L 390 1114 L 390 1129 L 391 1130 L 391 1134 L 392 1135 L 392 1139 L 393 1140 L 393 1141 L 394 1142 L 394 1144 L 395 1145 L 396 1148 L 398 1150 L 399 1153 L 409 1163 L 410 1163 L 412 1165 L 413 1165 L 414 1166 L 415 1166 L 420 1169 L 422 1169 L 423 1170 L 425 1170 L 426 1171 L 429 1171 L 430 1172 L 438 1172 L 439 1173 L 446 1173 L 447 1172 L 458 1172 L 459 1171 L 463 1171 L 464 1170 L 468 1170 L 469 1169 L 472 1169 L 473 1168 L 475 1168 L 476 1167 L 478 1167 L 479 1166 L 481 1166 L 482 1165 L 483 1165 L 488 1162 L 490 1162 L 492 1160 L 493 1160 L 494 1159 L 495 1159 L 496 1158 L 499 1157 L 501 1155 L 502 1156 L 502 1158 L 503 1159 L 503 1162 L 504 1163 L 504 1165 L 505 1166 L 505 1170 L 547 1170 L 547 1156 L 546 1155 L 547 1154 L 547 1040 L 546 1039 L 546 1032 L 545 1031 L 545 1028 L 544 1027 L 544 1025 L 543 1024 L 543 1022 L 542 1021 L 542 1020 L 541 1019 L 540 1016 L 537 1013 L 537 1012 L 529 1004 L 528 1004 L 523 1000 L 522 1000 L 521 999 L 520 999 L 515 996 L 513 996 L 512 995 L 510 995 L 509 994 L 506 994 L 505 993 L 503 993 L 502 992 L 498 992 L 497 991 L 491 991 L 490 990 L 476 990 L 475 989 L 474 990 L 460 990 L 459 991 L 453 991 L 452 992 L 448 992 L 447 993 L 444 993 L 443 994 L 441 994 L 440 995 L 438 995 L 437 996 L 435 996 L 434 997 L 432 997 L 431 998 L 430 998 L 429 999 L 428 999 L 427 1000 L 426 1000 L 425 1001 L 422 1002 L 419 1005 L 418 1005 L 416 1007 L 415 1007 L 410 1012 Z M 726 1000 L 725 1000 L 720 996 L 719 996 L 716 994 L 714 994 L 711 992 L 708 992 L 707 991 L 703 991 L 702 990 L 695 990 L 694 989 L 683 989 L 682 990 L 676 990 L 675 991 L 671 991 L 670 992 L 666 992 L 663 994 L 661 994 L 660 995 L 658 995 L 657 996 L 656 996 L 655 997 L 654 997 L 653 998 L 652 998 L 651 999 L 650 999 L 649 1000 L 646 1001 L 644 1003 L 641 1004 L 639 1006 L 638 1006 L 636 1008 L 635 1008 L 633 1010 L 632 1010 L 629 1013 L 627 1013 L 626 1012 L 626 1008 L 625 1007 L 625 1004 L 624 1003 L 624 998 L 623 997 L 623 994 L 622 993 L 619 993 L 618 994 L 611 994 L 610 995 L 603 995 L 602 996 L 596 996 L 595 997 L 589 997 L 588 998 L 584 998 L 584 1170 L 630 1170 L 630 1043 L 633 1040 L 634 1040 L 637 1037 L 638 1037 L 640 1035 L 641 1035 L 646 1031 L 647 1031 L 648 1030 L 649 1030 L 650 1029 L 651 1029 L 656 1026 L 658 1026 L 659 1025 L 661 1025 L 662 1024 L 666 1024 L 667 1023 L 681 1023 L 682 1024 L 684 1024 L 685 1025 L 688 1026 L 692 1030 L 692 1031 L 694 1033 L 694 1034 L 695 1035 L 695 1037 L 696 1038 L 696 1041 L 697 1042 L 697 1170 L 743 1170 L 743 1035 L 742 1034 L 742 1028 L 741 1027 L 741 1024 L 740 1023 L 740 1021 L 739 1020 L 739 1018 L 738 1017 L 738 1016 L 737 1015 L 737 1014 L 736 1013 L 735 1010 L 732 1007 L 732 1006 Z M 942 993 L 903 993 L 903 995 L 902 996 L 902 1000 L 901 1001 L 901 1006 L 900 1007 L 900 1011 L 899 1012 L 896 1009 L 896 1008 L 893 1005 L 893 1004 L 892 1004 L 887 999 L 884 998 L 882 996 L 880 996 L 879 995 L 878 995 L 877 994 L 875 994 L 872 992 L 869 992 L 868 991 L 863 991 L 862 990 L 855 990 L 854 989 L 844 989 L 843 990 L 837 990 L 836 991 L 832 991 L 831 992 L 829 992 L 828 993 L 826 993 L 825 994 L 823 994 L 822 995 L 821 995 L 820 996 L 817 997 L 812 1001 L 809 1002 L 797 1014 L 797 1015 L 794 1018 L 794 1019 L 790 1024 L 790 1025 L 789 1026 L 789 1027 L 786 1032 L 786 1034 L 784 1037 L 784 1039 L 782 1042 L 782 1044 L 781 1045 L 781 1048 L 780 1049 L 780 1052 L 779 1053 L 779 1057 L 778 1058 L 778 1064 L 777 1065 L 777 1075 L 776 1076 L 776 1087 L 777 1088 L 777 1100 L 778 1101 L 778 1105 L 779 1106 L 779 1111 L 780 1112 L 780 1115 L 781 1116 L 781 1119 L 782 1120 L 782 1122 L 784 1125 L 784 1127 L 785 1128 L 785 1129 L 786 1130 L 786 1131 L 787 1132 L 787 1133 L 788 1134 L 789 1137 L 791 1139 L 792 1142 L 795 1145 L 795 1146 L 805 1156 L 806 1156 L 809 1159 L 812 1160 L 814 1162 L 815 1162 L 820 1165 L 822 1165 L 825 1167 L 828 1167 L 829 1168 L 832 1168 L 833 1169 L 837 1169 L 838 1170 L 862 1170 L 863 1169 L 867 1169 L 870 1167 L 872 1167 L 873 1166 L 875 1166 L 876 1165 L 877 1165 L 879 1163 L 880 1163 L 882 1161 L 883 1161 L 890 1154 L 890 1153 L 893 1150 L 893 1149 L 895 1147 L 895 1146 L 896 1145 L 897 1146 L 897 1177 L 896 1178 L 896 1182 L 895 1183 L 895 1185 L 894 1186 L 894 1188 L 893 1189 L 893 1190 L 892 1191 L 891 1194 L 885 1200 L 884 1200 L 882 1202 L 881 1202 L 878 1204 L 875 1204 L 874 1205 L 871 1205 L 870 1206 L 849 1206 L 848 1205 L 844 1205 L 843 1204 L 840 1204 L 838 1202 L 835 1201 L 829 1195 L 827 1189 L 824 1189 L 823 1190 L 818 1190 L 817 1191 L 811 1191 L 810 1192 L 805 1192 L 804 1193 L 799 1193 L 798 1194 L 792 1194 L 791 1195 L 787 1195 L 786 1196 L 782 1196 L 782 1199 L 783 1200 L 783 1202 L 784 1203 L 784 1205 L 786 1207 L 786 1208 L 787 1209 L 788 1212 L 790 1214 L 790 1215 L 799 1224 L 800 1224 L 805 1228 L 806 1228 L 807 1229 L 808 1229 L 809 1230 L 810 1230 L 811 1231 L 812 1231 L 817 1234 L 820 1234 L 823 1236 L 826 1236 L 827 1237 L 831 1237 L 832 1238 L 836 1238 L 837 1239 L 849 1239 L 850 1240 L 859 1240 L 860 1239 L 876 1239 L 877 1238 L 882 1238 L 883 1237 L 887 1237 L 888 1236 L 892 1236 L 893 1235 L 895 1235 L 896 1234 L 898 1234 L 899 1233 L 901 1233 L 904 1231 L 906 1231 L 907 1230 L 908 1230 L 909 1229 L 912 1228 L 914 1226 L 915 1226 L 917 1224 L 918 1224 L 923 1219 L 924 1219 L 925 1218 L 925 1217 L 929 1213 L 929 1212 L 933 1207 L 933 1206 L 936 1201 L 936 1199 L 937 1198 L 937 1196 L 939 1193 L 939 1189 L 940 1188 L 940 1183 L 941 1182 L 941 1168 L 942 1167 Z M 1028 992 L 1027 993 L 1025 993 L 1024 994 L 1022 994 L 1019 996 L 1017 996 L 1016 997 L 1015 997 L 1014 998 L 1013 998 L 1012 999 L 1009 1000 L 1007 1002 L 1006 1002 L 1004 1004 L 1003 1004 L 1000 1007 L 999 1007 L 992 1014 L 992 1015 L 988 1019 L 988 1020 L 984 1025 L 984 1026 L 983 1027 L 983 1028 L 982 1029 L 982 1030 L 979 1035 L 979 1037 L 978 1038 L 978 1040 L 976 1043 L 976 1046 L 975 1047 L 975 1049 L 974 1050 L 974 1054 L 973 1055 L 973 1060 L 972 1061 L 972 1068 L 971 1069 L 971 1095 L 972 1096 L 972 1102 L 973 1103 L 973 1108 L 974 1109 L 974 1113 L 975 1114 L 975 1117 L 976 1118 L 976 1120 L 977 1121 L 977 1123 L 978 1124 L 978 1126 L 981 1131 L 981 1133 L 983 1135 L 984 1138 L 986 1140 L 986 1141 L 988 1143 L 988 1144 L 991 1147 L 991 1148 L 999 1156 L 1000 1156 L 1003 1159 L 1004 1159 L 1009 1163 L 1010 1163 L 1011 1164 L 1012 1164 L 1017 1167 L 1019 1167 L 1022 1169 L 1024 1169 L 1025 1170 L 1028 1170 L 1029 1171 L 1031 1171 L 1032 1172 L 1037 1172 L 1038 1173 L 1046 1173 L 1047 1174 L 1062 1174 L 1063 1173 L 1072 1173 L 1073 1172 L 1078 1172 L 1079 1171 L 1082 1171 L 1083 1170 L 1087 1170 L 1088 1169 L 1090 1169 L 1091 1168 L 1093 1168 L 1094 1167 L 1096 1167 L 1097 1166 L 1098 1166 L 1099 1165 L 1100 1165 L 1101 1164 L 1102 1164 L 1103 1163 L 1104 1163 L 1105 1162 L 1108 1161 L 1110 1159 L 1111 1159 L 1114 1156 L 1115 1156 L 1119 1152 L 1120 1152 L 1121 1151 L 1121 1150 L 1122 1149 L 1123 1149 L 1123 1148 L 1128 1143 L 1128 1142 L 1131 1139 L 1131 1138 L 1133 1136 L 1130 1135 L 1128 1133 L 1125 1132 L 1123 1130 L 1122 1130 L 1121 1129 L 1120 1129 L 1119 1128 L 1118 1128 L 1117 1127 L 1114 1126 L 1112 1124 L 1111 1124 L 1110 1123 L 1109 1123 L 1108 1122 L 1105 1121 L 1103 1119 L 1102 1119 L 1099 1117 L 1098 1118 L 1098 1119 L 1094 1123 L 1094 1124 L 1088 1130 L 1087 1130 L 1084 1133 L 1083 1133 L 1081 1135 L 1080 1135 L 1077 1137 L 1075 1137 L 1074 1138 L 1072 1138 L 1071 1139 L 1067 1139 L 1066 1140 L 1050 1140 L 1049 1139 L 1046 1139 L 1045 1138 L 1043 1138 L 1042 1137 L 1040 1137 L 1039 1136 L 1036 1135 L 1034 1133 L 1033 1133 L 1025 1125 L 1025 1124 L 1023 1122 L 1023 1121 L 1020 1116 L 1020 1114 L 1019 1113 L 1019 1111 L 1018 1110 L 1018 1106 L 1017 1105 L 1017 1099 L 1016 1098 L 1016 1089 L 1017 1088 L 1135 1088 L 1135 1068 L 1134 1067 L 1134 1060 L 1133 1059 L 1133 1053 L 1132 1052 L 1132 1049 L 1131 1048 L 1131 1045 L 1130 1044 L 1130 1042 L 1129 1041 L 1129 1039 L 1128 1038 L 1128 1036 L 1127 1035 L 1127 1034 L 1126 1033 L 1126 1032 L 1125 1031 L 1125 1030 L 1124 1029 L 1124 1028 L 1123 1027 L 1123 1026 L 1122 1025 L 1121 1022 L 1119 1020 L 1119 1019 L 1115 1015 L 1115 1014 L 1108 1007 L 1107 1007 L 1103 1003 L 1102 1003 L 1100 1001 L 1099 1001 L 1098 1000 L 1097 1000 L 1096 999 L 1095 999 L 1094 998 L 1093 998 L 1088 995 L 1086 995 L 1085 994 L 1083 994 L 1082 993 L 1080 993 L 1079 992 L 1075 992 L 1074 991 L 1070 991 L 1069 990 L 1062 990 L 1061 989 L 1047 989 L 1046 990 L 1039 990 L 1038 991 L 1033 991 L 1032 992 Z M 376 990 L 363 990 L 362 991 L 358 991 L 357 992 L 354 992 L 351 994 L 349 994 L 348 995 L 347 995 L 346 996 L 345 996 L 344 997 L 343 997 L 342 998 L 339 999 L 337 1001 L 336 1001 L 334 1003 L 333 1003 L 329 1007 L 328 1007 L 328 1008 L 327 1009 L 326 1009 L 325 1010 L 325 1011 L 324 1012 L 323 1012 L 323 1013 L 322 1014 L 321 1013 L 321 993 L 278 993 L 277 994 L 277 1170 L 324 1170 L 324 1052 L 325 1051 L 325 1050 L 328 1047 L 328 1046 L 330 1044 L 331 1044 L 334 1041 L 335 1041 L 336 1040 L 337 1040 L 342 1037 L 344 1037 L 345 1036 L 348 1036 L 349 1035 L 353 1035 L 354 1034 L 363 1034 L 364 1033 L 376 1033 Z M 1017 1053 L 1018 1052 L 1018 1048 L 1019 1047 L 1019 1045 L 1020 1044 L 1020 1042 L 1021 1041 L 1021 1040 L 1022 1039 L 1023 1036 L 1025 1034 L 1025 1033 L 1032 1026 L 1033 1026 L 1035 1024 L 1036 1024 L 1037 1023 L 1039 1023 L 1040 1022 L 1042 1022 L 1043 1021 L 1047 1021 L 1048 1020 L 1059 1020 L 1060 1021 L 1065 1021 L 1066 1022 L 1068 1022 L 1069 1023 L 1070 1023 L 1071 1024 L 1074 1025 L 1076 1027 L 1077 1027 L 1083 1033 L 1084 1036 L 1086 1038 L 1086 1040 L 1087 1041 L 1087 1042 L 1088 1043 L 1088 1045 L 1089 1046 L 1089 1052 L 1090 1053 L 1090 1058 L 1089 1059 L 1018 1059 L 1017 1058 Z M 851 1022 L 866 1022 L 867 1023 L 870 1023 L 871 1024 L 872 1024 L 873 1025 L 874 1025 L 875 1026 L 878 1027 L 883 1032 L 884 1032 L 885 1033 L 885 1034 L 889 1038 L 889 1039 L 890 1040 L 890 1041 L 891 1042 L 891 1043 L 894 1048 L 894 1051 L 895 1052 L 895 1054 L 896 1055 L 896 1059 L 897 1060 L 897 1069 L 898 1070 L 898 1078 L 897 1079 L 897 1092 L 896 1093 L 896 1099 L 895 1100 L 895 1102 L 894 1103 L 894 1107 L 893 1108 L 893 1109 L 892 1110 L 892 1111 L 891 1112 L 891 1113 L 890 1114 L 889 1117 L 887 1119 L 887 1120 L 880 1127 L 879 1127 L 877 1129 L 876 1129 L 875 1130 L 873 1130 L 870 1132 L 866 1132 L 865 1133 L 851 1133 L 850 1132 L 847 1132 L 844 1130 L 842 1130 L 840 1128 L 839 1128 L 831 1120 L 831 1119 L 830 1118 L 830 1117 L 829 1116 L 829 1115 L 826 1110 L 826 1108 L 825 1107 L 825 1104 L 824 1103 L 824 1097 L 823 1096 L 823 1089 L 822 1088 L 822 1065 L 823 1064 L 823 1058 L 824 1057 L 824 1053 L 825 1052 L 825 1050 L 826 1049 L 826 1046 L 827 1045 L 827 1044 L 828 1043 L 828 1042 L 829 1041 L 830 1038 L 832 1036 L 832 1035 L 840 1027 L 843 1026 L 845 1024 L 847 1024 L 848 1023 L 850 1023 Z M 153 1027 L 161 1027 L 162 1028 L 167 1028 L 168 1029 L 171 1029 L 174 1031 L 176 1031 L 178 1033 L 179 1033 L 182 1036 L 183 1036 L 187 1040 L 187 1041 L 190 1044 L 190 1045 L 191 1046 L 191 1047 L 192 1048 L 192 1049 L 195 1054 L 195 1057 L 196 1058 L 196 1061 L 197 1062 L 197 1066 L 198 1067 L 198 1077 L 199 1078 L 199 1087 L 198 1088 L 198 1097 L 197 1098 L 197 1103 L 196 1104 L 196 1106 L 195 1107 L 195 1110 L 193 1113 L 193 1115 L 192 1116 L 192 1117 L 190 1119 L 190 1120 L 188 1122 L 188 1123 L 181 1130 L 180 1130 L 178 1132 L 177 1132 L 172 1135 L 169 1135 L 168 1136 L 165 1136 L 164 1137 L 149 1137 L 148 1136 L 145 1136 L 144 1135 L 142 1135 L 141 1134 L 139 1134 L 138 1133 L 135 1132 L 132 1129 L 131 1129 L 127 1125 L 127 1124 L 124 1121 L 124 1120 L 122 1118 L 122 1117 L 120 1114 L 120 1112 L 119 1111 L 119 1109 L 118 1108 L 118 1106 L 117 1105 L 117 1101 L 116 1100 L 116 1095 L 115 1094 L 115 1070 L 116 1069 L 116 1064 L 117 1063 L 117 1059 L 118 1058 L 118 1056 L 119 1055 L 119 1053 L 120 1052 L 120 1051 L 121 1050 L 121 1049 L 122 1048 L 123 1045 L 125 1043 L 125 1042 L 133 1034 L 134 1034 L 136 1032 L 137 1032 L 140 1030 L 142 1030 L 143 1029 L 145 1029 L 146 1028 L 152 1028 Z M 501 1081 L 501 1122 L 498 1125 L 497 1125 L 493 1129 L 492 1129 L 490 1131 L 487 1132 L 485 1134 L 484 1134 L 479 1137 L 477 1137 L 472 1140 L 468 1140 L 467 1141 L 461 1141 L 460 1142 L 455 1142 L 454 1141 L 451 1141 L 450 1140 L 448 1140 L 442 1136 L 442 1135 L 438 1131 L 438 1130 L 437 1129 L 437 1127 L 436 1126 L 436 1124 L 435 1123 L 435 1113 L 436 1112 L 436 1110 L 437 1109 L 437 1107 L 438 1106 L 438 1105 L 440 1103 L 440 1102 L 446 1096 L 447 1096 L 449 1094 L 450 1094 L 452 1092 L 453 1092 L 456 1090 L 458 1090 L 461 1088 L 463 1088 L 464 1087 L 466 1087 L 467 1086 L 469 1086 L 470 1085 L 473 1085 L 474 1084 L 476 1084 L 477 1083 L 482 1083 L 483 1082 L 487 1082 L 488 1081 L 493 1081 L 494 1080 L 500 1080 Z" />
    </mask>
  </defs>
  <rect width="1280" height="1280" fill="#000" mask="url(#orange-knockout)"/>
</svg>
